HIERARCHY
ROOT SpineBase
{
  OFFSET 0.000000 0.000000 0.000000
  CHANNELS 6 Xposition Yposition Zposition Zrotation Xrotation Yrotation
  JOINT SpineMid
  {
    OFFSET 0.000000 27.882604 0.000000
    CHANNELS 3 Zrotation Xrotation Yrotation
    JOINT SpineShoulder
    {
      OFFSET 0.015914 20.900576 -0.631733
      CHANNELS 3 Zrotation Xrotation Yrotation
      JOINT Neck
      {
        OFFSET -0.003695 6.969089 -0.512699
        CHANNELS 3 Zrotation Xrotation Yrotation
        JOINT Head
        {
          OFFSET -2.093636 10.611519 3.229709
          CHANNELS 3 Zrotation Xrotation Yrotation
          End Site
          {
            OFFSET 0 0 0
          }
        }
      }
      JOINT ShoulderLeft
      {
        OFFSET -6.636947 -6.699519 -12.611922
        CHANNELS 3 Zrotation Xrotation Yrotation
        JOINT ElbowLeft
        {
          OFFSET -6.766420 -21.167179 -0.443962
          CHANNELS 3 Zrotation Xrotation Yrotation
          JOINT WristLeft
          {
            OFFSET -1.773963 -19.120894 9.439519
            CHANNELS 3 Zrotation Xrotation Yrotation
            JOINT HandLeft
            {
              OFFSET 1.937917 -3.244576 -1.656617
              CHANNELS 3 Zrotation Xrotation Yrotation
              JOINT HandTipLeft
              {
                OFFSET -0.446823 -1.720409 -0.012485
                CHANNELS 3 Zrotation Xrotation Yrotation
                End Site
                {
                  OFFSET 0 0 0
                }
              }
              JOINT ThumbLeft
              {
                OFFSET -0.587864 0.692485 -0.571057
                CHANNELS 3 Zrotation Xrotation Yrotation
                End Site
                {
                  OFFSET 0 0 0
                }
              }
            }
          }
        }
      }
      JOINT ShoulderRight
      {
        OFFSET 2.994136 -3.841147 -6.602472
        CHANNELS 3 Zrotation Xrotation Yrotation
        JOINT ElbowRight
        {
          OFFSET -12.758869 -16.484721 -8.540896
          CHANNELS 3 Zrotation Xrotation Yrotation
          JOINT WristRight
          {
            OFFSET -5.430685 -20.099322 5.258699
            CHANNELS 3 Zrotation Xrotation Yrotation
            JOINT HandRight
            {
              OFFSET 3.126683 -5.638322 3.448531
              CHANNELS 3 Zrotation Xrotation Yrotation
              JOINT HandTipRight
              {
                OFFSET 0.107756 -3.745502 -2.207660
                CHANNELS 3 Zrotation Xrotation Yrotation
                End Site
                {
                  OFFSET 0 0 0
                }
              }
              JOINT ThumbRight
              {
                OFFSET 0.776461 -3.802914 -4.320706
                CHANNELS 3 Zrotation Xrotation Yrotation
                End Site
                {
                  OFFSET 0 0 0
                }
              }
            }
          }
        }
      }
    }
  }
  JOINT HipLeft
  {
    OFFSET -4.396239 1.425336 -0.738365
    CHANNELS 3 Zrotation Xrotation Yrotation
    JOINT KneeLeft
    {
      OFFSET 12.924016 -36.559092 0.577592
      CHANNELS 3 Zrotation Xrotation Yrotation
      JOINT AnkleLeft
      {
        OFFSET 7.669526 -32.454275 7.309853
        CHANNELS 3 Zrotation Xrotation Yrotation
        JOINT FootLeft
        {
          OFFSET -1.385361 -5.471270 -3.753937
          CHANNELS 3 Zrotation Xrotation Yrotation
          End Site
          {
            OFFSET 0 0 0
          }
        }
      }
    }
  }
  JOINT HipRight
  {
    OFFSET 4.478433 1.155818 -5.457205
    CHANNELS 3 Zrotation Xrotation Yrotation
    JOINT KneeRight
    {
      OFFSET -2.616000 -35.046243 -1.536136
      CHANNELS 3 Zrotation Xrotation Yrotation
      JOINT AnkleRight
      {
        OFFSET 3.770086 -36.256232 -2.870643
        CHANNELS 3 Zrotation Xrotation Yrotation
        JOINT FootRight
        {
          OFFSET -3.812666 -5.128673 -1.391137
          CHANNELS 3 Zrotation Xrotation Yrotation
          End Site
          {
            OFFSET 0 0 0
          }
        }
      }
    }
  }
}
MOTION
Frames: 13
Frame Time: 0.033333
-4.723907 77.205492 295.062874 -0.000000 0.000000 28.000469 0.000000 0.000000 -28.000469 -0.000000 0.000000 0.000000 -0.000000 0.000000 0.000000 0.000000 0.000000 0.000000 -0.000000 0.000000 0.000000 -0.000000 0.000000 0.000000 -0.000000 0.000000 0.000000 -0.000000 0.000000 0.000000 0.000000 0.000000 0.000000 0.000000 0.000000 0.000000 -0.000000 0.000000 0.000000 -0.000000 0.000000 0.000000 -0.000000 0.000000 0.000000 -0.000000 0.000000 0.000000 0.000000 0.000000 0.000000 0.000000 0.000000 0.000000 0.000000 0.000000 -28.000469 -0.000000 0.000000 0.000000 -0.000000 0.000000 0.000000 0.000000 0.000000 0.000000 0.000000 0.000000 -28.000469 -0.000000 0.000000 0.000000 -0.000000 0.000000 0.000000 0.000000 0.000000 0.000000
-4.721254 77.234371 295.044276 -0.000926 0.004055 27.390958 -0.001044 -0.004026 -27.390958 -0.000000 0.000000 0.000000 -0.000000 0.000000 0.000000 0.000000 0.000000 0.000000 -0.000000 0.000000 0.000000 2.133811 0.369363 1.015730 -4.740442 1.981811 1.720911 13.137954 17.039102 -9.458640 0.000000 0.000000 0.000000 0.000000 0.000000 0.000000 0.619241 -0.567020 0.121916 -0.618064 0.568304 -0.115786 -1.478002 1.761425 0.097159 0.864968 -1.036947 0.313197 0.000000 0.000000 0.000000 0.000000 0.000000 0.000000 0.195406 -1.211955 -27.723748 -1.501757 2.021472 0.438219 3.025349 1.978220 -2.379193 0.000000 0.000000 0.000000 -0.001044 -0.004026 -27.390958 -0.000000 0.000000 0.000000 1.616402 -2.356188 1.368533 0.000000 0.000000 0.000000
-4.719586 77.254597 295.026750 0.002154 0.011429 26.886299 -0.007090 -0.009220 -26.886300 -0.000000 0.000000 0.000000 -0.000000 0.000000 0.000000 0.000000 0.000000 0.000000 -0.000000 0.000000 0.000000 4.036488 0.910116 1.890452 -9.155466 3.147331 3.112547 27.683874 28.550814 -19.817698 0.000000 0.000000 0.000000 0.000000 0.000000 0.000000 1.144404 -1.051721 0.234521 -2.066570 1.443083 -0.539154 -1.636185 2.709996 0.570667 1.193740 -1.635080 0.674225 0.000000 0.000000 0.000000 0.000000 0.000000 0.000000 0.384805 -2.332440 -27.523199 -2.923981 3.890073 0.892136 6.513853 4.705106 -5.254329 0.000000 0.000000 0.000000 -0.312322 1.232926 -26.918852 1.750422 -1.298403 -0.045722 2.315073 -3.372441 2.136978 0.000000 0.000000 0.000000
-4.718903 77.266169 295.010298 0.009239 0.022120 26.490433 -0.018135 -0.015676 -26.490437 -0.000000 0.000000 0.000000 -0.000000 0.000000 0.000000 0.000000 0.000000 0.000000 -0.000000 0.000000 0.000000 5.693579 1.610161 2.613367 -13.109381 3.409481 3.994472 39.040605 33.761816 -27.659854 0.000000 0.000000 0.000000 0.000000 0.000000 0.000000 1.575709 -1.455093 0.335624 -2.831122 2.003834 -0.731905 -2.062026 3.574556 0.854291 1.104981 -1.995713 1.049372 0.000000 0.000000 0.000000 0.000000 0.000000 0.000000 0.559623 -3.354364 -27.401276 -4.264036 5.606973 1.350707 10.487983 8.001021 -8.633631 0.000000 0.000000 0.000000 -0.431806 1.632421 -26.532436 2.315889 -1.694616 -0.046069 3.636734 -3.729720 2.135111 0.000000 0.000000 0.000000
-4.719206 77.269089 294.994919 0.020324 0.036120 26.206361 -0.034186 -0.023432 -26.206375 -0.000000 0.000000 0.000000 -0.000000 0.000000 0.000000 0.000000 0.000000 0.000000 -0.000000 0.000000 0.000000 7.095966 2.457932 3.178235 -16.505634 2.745439 4.238068 45.683184 35.548262 -31.769061 0.000000 0.000000 0.000000 0.000000 0.000000 0.000000 1.913297 -1.778014 0.423437 -3.418264 2.456018 -0.881578 -2.308724 4.215100 1.124701 0.750695 -2.360323 1.374688 0.000000 0.000000 0.000000 0.000000 0.000000 0.000000 0.712172 -4.272209 -27.360187 -5.519077 7.174448 1.803726 14.911375 11.607308 -12.469842 0.000000 0.000000 0.000000 -0.519393 1.889514 -26.254423 2.668689 -1.919877 -0.039251 5.123483 -3.268808 1.371930 0.000000 0.000000 0.000000
-4.720494 77.263355 294.980613 0.035401 0.053421 26.036125 -0.055257 -0.032461 -26.036157 -0.000000 0.000000 0.000000 -0.000000 0.000000 0.000000 0.000000 0.000000 0.000000 -0.000000 0.000000 0.000000 8.238815 3.443161 3.582686 -19.298233 1.178914 3.778551 48.011287 35.749962 -32.572328 0.000000 0.000000 0.000000 0.000000 0.000000 0.000000 2.157194 -2.021181 0.496551 -3.828841 2.798978 -0.992725 -2.408947 4.676830 1.380417 0.342293 -2.993179 1.543799 0.000000 0.000000 0.000000 0.000000 0.000000 0.000000 0.835895 -5.081974 -27.401767 -6.686414 8.595849 2.241935 19.672866 15.226396 -16.644812 0.000000 0.000000 0.000000 -0.571461 2.005418 -26.087429 2.805371 -1.973120 -0.028626 6.863327 -1.965118 -0.254792 0.000000 0.000000 0.000000
-4.711756 77.239459 294.967797 0.064647 0.072253 25.902936 -0.089715 -0.036753 -25.903005 -0.000000 0.000000 0.000000 -0.000000 0.000000 0.000000 0.000000 0.000000 0.000000 -0.000000 0.000000 0.000000 9.490378 5.524983 3.843711 -19.791988 -3.232701 0.392029 45.738398 37.253113 -30.787925 0.000000 0.000000 0.000000 0.000000 0.000000 0.000000 2.203469 -2.081418 0.522091 -3.840210 2.873585 -1.008585 -2.363626 5.874814 2.191971 -0.738696 -2.756263 1.267907 0.000000 0.000000 0.000000 0.000000 0.000000 0.000000 0.703027 -4.952026 -27.252098 -6.604092 8.575294 2.211765 23.580935 18.495040 -20.537030 0.000000 0.000000 0.000000 -0.940131 3.351672 -25.979625 4.602571 -3.966981 -0.030762 7.340662 4.641865 -5.564393 0.000000 0.000000 0.000000
-4.713744 77.211743 294.957061 0.086893 0.095647 25.861793 -0.119912 -0.048165 -25.861916 -0.000000 0.000000 0.000000 -0.000000 0.000000 0.000000 0.000000 0.000000 0.000000 -0.000000 0.000000 0.000000 9.984559 6.917745 3.838298 -21.334885 -7.226700 -1.835326 34.402166 27.825841 -19.007329 0.000000 0.000000 0.000000 0.000000 0.000000 0.000000 2.201152 -2.104466 0.542070 -3.828945 2.928381 -1.033299 -1.928413 5.521748 2.250658 -0.622595 -7.121688 0.581316 0.000000 0.000000 0.000000 0.000000 0.000000 0.000000 0.431748 -4.199105 -27.032012 -5.589771 7.483907 1.847842 25.294197 20.657312 -22.841646 0.000000 0.000000 0.000000 -0.961253 3.355744 -25.940449 4.474192 -3.949040 -0.022296 12.339471 8.094668 -10.711453 0.000000 0.000000 0.000000
-4.722841 77.185526 294.945810 0.113080 0.122246 25.952973 -0.155175 -0.060430 -25.953175 -0.000000 0.000000 0.000000 -0.000000 0.000000 0.000000 0.000000 0.000000 0.000000 -0.000000 0.000000 0.000000 10.464461 7.131276 4.020349 -22.133182 1.000003 4.242321 31.276593 14.870003 -17.832537 0.000000 0.000000 0.000000 0.000000 0.000000 0.000000 2.200645 -2.153781 0.582567 -3.766466 2.928283 -1.044354 -1.670767 6.075573 2.725664 -0.517847 -7.874274 -0.218977 0.000000 0.000000 0.000000 0.000000 0.000000 0.000000 0.599077 -5.188515 -27.373103 -7.248709 9.361067 2.414356 33.982471 25.120554 -30.569045 0.000000 0.000000 0.000000 -0.825229 2.658133 -26.019888 3.459283 -2.922363 -0.022979 15.665779 9.265498 -13.549648 0.000000 0.000000 0.000000
-4.737481 77.159753 294.937227 0.138334 0.151674 26.421461 -0.191375 -0.074276 -26.421768 -0.000000 0.000000 0.000000 -0.000000 0.000000 0.000000 0.000000 0.000000 0.000000 -0.000000 0.000000 0.000000 9.614542 5.463117 3.911792 -24.351240 -0.402023 4.511378 32.629830 21.952907 -20.430830 0.000000 0.000000 0.000000 0.000000 0.000000 0.000000 2.157290 -2.155297 0.605824 -3.694855 2.931138 -1.063450 -1.466591 5.520224 2.501563 -0.323241 -9.354297 -0.330387 0.000000 0.000000 0.000000 0.000000 0.000000 0.000000 1.114457 -7.896973 -28.500295 -11.555190 14.071966 4.178416 39.284408 25.825706 -33.198245 0.000000 0.000000 0.000000 -0.191375 -0.074276 -26.421768 -0.000000 0.000000 0.000000 20.092112 8.470866 -14.907208 0.000000 0.000000 0.000000
-4.765851 77.138506 294.931031 0.147409 0.183885 27.348650 -0.215410 -0.095610 -27.349067 -0.000000 0.000000 0.000000 0.950111 0.414395 -0.210282 0.000000 0.000000 0.000000 -0.313294 1.159996 -0.360688 7.478463 1.074352 3.766166 -29.003782 -10.573897 -0.595726 40.165124 42.293521 -25.153275 0.000000 0.000000 0.000000 0.000000 0.000000 0.000000 2.087778 -2.160012 0.644941 -3.637747 3.004138 -1.125223 -1.535073 3.833178 1.461503 1.466462 -4.531429 0.175796 0.000000 0.000000 0.000000 0.000000 0.000000 0.000000 1.430512 -9.934645 -29.889506 -15.058294 17.360930 5.699789 44.507248 26.464661 -36.068993 0.000000 0.000000 0.000000 0.144824 -1.606292 -27.300296 -2.350637 3.236819 0.338482 21.187301 5.510711 -13.483298 0.000000 0.000000 0.000000
-4.801349 77.120419 294.925943 0.146198 0.214037 28.014697 -0.229601 -0.120288 -28.015211 -0.000000 0.000000 0.000000 1.247411 0.476199 -0.289916 0.000000 0.000000 0.000000 -0.000000 0.000000 0.000000 7.857172 0.143803 3.887462 -46.448114 -29.447983 -20.284160 72.930205 64.696874 -46.428942 0.000000 0.000000 0.000000 0.000000 0.000000 0.000000 2.043782 -2.233141 0.726815 -3.550995 3.200136 -1.227037 -1.889667 3.198953 0.968642 2.875029 0.702574 0.306523 0.000000 0.000000 0.000000 0.000000 0.000000 0.000000 1.069543 -8.184604 -30.113963 -11.672838 14.355547 4.305161 38.755162 25.842842 -32.974583 0.000000 0.000000 0.000000 -0.097235 -1.558175 -27.957825 -2.006430 3.065892 0.287554 20.559880 2.473684 -10.085772 0.000000 0.000000 0.000000
-4.846809 77.109502 294.923163 0.133037 0.240628 28.522074 -0.231790 -0.147898 -28.522653 -0.000000 0.000000 0.000000 1.484115 0.540197 -0.350744 0.000000 0.000000 0.000000 -0.000000 0.000000 0.000000 6.206556 -3.805575 3.584674 -62.189376 -39.730433 -42.432445 166.298297 70.976497 -137.421539 0.000000 0.000000 0.000000 0.000000 0.000000 0.000000 2.203497 -2.494791 0.859904 -4.095753 3.893070 -1.525896 -2.334426 3.146931 0.884227 4.390339 9.476114 0.498743 0.000000 0.000000 0.000000 0.000000 0.000000 0.000000 0.647332 -5.916490 -30.047543 -7.679153 10.286491 2.781660 29.952014 22.686447 -26.765172 0.000000 0.000000 0.000000 -0.231790 -0.147898 -28.522653 -0.563863 1.162304 0.171180 19.311420 -1.078332 -5.697319 0.000000 0.000000 0.000000
